<?xml version="1.0" encoding="UTF-8"?>
<svg width="42px" height="42px" viewBox="0 0 42 42" version="1.1" xmlns="http://www.w3.org/2000/svg" xmlns:xlink="http://www.w3.org/1999/xlink">
    <!-- Generator: Sketch 48.2 (47327) - http://www.bohemiancoding.com/sketch -->
    <title>Slice 1</title>
    <desc>Created with Sketch.</desc>
    <defs></defs>
    <g id="Page-1" stroke="none" stroke-width="1" fill="none" fill-rule="evenodd">
        <path d="M21,42 C9.40202025,42 0,32.5979797 0,21 C0,9.40202025 9.40202025,0 21,0 C32.5979797,0 42,9.40202025 42,21 C42,32.5979797 32.5979797,42 21,42 Z M27.7580187,16.2821134 L23.295244,16.2821134 L23.295244,13.355187 C23.295244,12.2559843 24.023765,11.9997177 24.5368819,11.9997177 C25.0488314,11.9997177 27.6862174,11.9997177 27.6862174,11.9997177 L27.6862174,7.16742877 L23.3489491,7.1505 C18.5341727,7.1505 17.4384725,10.7545773 17.4384725,13.0609766 L17.4384725,16.2821134 L14.6539813,16.2821134 L14.6539813,21.2615075 L17.4384725,21.2615075 C17.4384725,27.6518273 17.4384725,35.3515 17.4384725,35.3515 L23.295244,35.3515 C23.295244,35.3515 23.295244,27.5759397 23.295244,21.2615075 L27.2472368,21.2615075 L27.7580187,16.2821134 Z" id="Oval" fill="#555555"></path>
    </g>
</svg>