<?xml version="1.0" encoding="UTF-8"?>
<svg width="42px" height="42px" viewBox="0 0 42 42" version="1.1" xmlns="http://www.w3.org/2000/svg" xmlns:xlink="http://www.w3.org/1999/xlink">
    <!-- Generator: Sketch 48.2 (47327) - http://www.bohemiancoding.com/sketch -->
    <title>Untitled 2</title>
    <desc>Created with Sketch.</desc>
    <defs></defs>
    <g id="Page-1" stroke="none" stroke-width="1" fill="none" fill-rule="evenodd">
        <path d="M21,42 C9.40202025,42 0,32.5979797 0,21 C0,9.40202025 9.40202025,0 21,0 C32.5979797,0 42,9.40202025 42,21 C42,32.5979797 32.5979797,42 21,42 Z M21.5,7.49411965 C17.7011231,7.49411965 17.2173412,7.50998135 15.7263415,7.58135899 C14.2353418,7.65273664 13.220193,7.88273128 12.3319379,8.23168866 C11.4119593,8.58857689 10.6268052,9.06442786 9.84958197,9.84958197 C9.07235871,10.6268052 8.59650774,11.4119593 8.23168866,12.3319379 C7.88273128,13.220193 7.64480579,14.2432726 7.58135899,15.7263415 C7.5179122,17.2173412 7.49411965,17.6931922 7.49411965,21.5 C7.49411965,25.2988769 7.50998135,25.7747279 7.58135899,27.2736585 C7.65273664,28.7646582 7.88273128,29.779807 8.23168866,30.6680621 C8.58857689,31.5880407 9.06442786,32.3731948 9.84958197,33.150418 C10.6268052,33.9276413 11.4119593,34.4114231 12.3319379,34.7683113 C13.220193,35.1172687 14.2432726,35.3472634 15.7263415,35.418641 C17.2173412,35.4900187 17.6931922,35.5058804 21.5,35.5058804 C25.2988769,35.5058804 25.7747279,35.4900187 27.2736585,35.418641 C28.7646582,35.3472634 29.779807,35.1172687 30.675993,34.7683113 C31.5959715,34.4114231 32.3731948,33.9276413 33.150418,33.150418 C33.9276413,32.3731948 34.4034923,31.5880407 34.7683113,30.6680621 C35.1093379,29.779807 35.3472634,28.7646582 35.418641,27.2736585 C35.4820878,25.7826588 35.5058804,25.3068078 35.5058804,21.5 C35.5058804,17.7011231 35.4900187,17.2252721 35.418641,15.7263415 C35.3472634,14.2353418 35.1093379,13.220193 34.7683113,12.3319379 C34.4114231,11.4119593 33.9276413,10.6268052 33.150418,9.84958197 C32.3731948,9.07235871 31.5959715,8.59650774 30.6680621,8.23168866 C29.7718761,7.88273128 28.7567274,7.65273664 27.2657276,7.58135899 C25.7747279,7.50998135 25.2988769,7.49411965 21.5,7.49411965 Z M20.2469258,10.0161298 C20.6196757,10.0161298 21.0320799,10.0161298 21.5,10.0161298 C25.2354302,10.0161298 25.6795577,10.0319915 27.1546957,10.0954383 C28.5188019,10.1588851 29.2563709,10.3888797 29.7560144,10.5792201 C30.4063441,10.8330073 30.8742642,11.1343796 31.3659769,11.6260923 C31.8576895,12.117805 32.1590618,12.5857251 32.412849,13.2360547 C32.6031894,13.7277674 32.833184,14.4732673 32.8966308,15.8373734 C32.9600776,17.3125114 32.9759393,17.756639 32.9759393,21.4920692 C32.9759393,25.2274993 32.9600776,25.6716269 32.8966308,27.1467649 C32.833184,28.510871 32.6031894,29.24844 32.412849,29.7480836 C32.1590618,30.3984132 31.8576895,30.8663333 31.3659769,31.358046 C30.8742642,31.8497587 30.4142749,32.151131 29.7560144,32.4049182 C29.2643017,32.5952586 28.5188019,32.8252532 27.1546957,32.8887 C25.6795577,32.9521468 25.2354302,32.9680085 21.5,32.9680085 C17.7645698,32.9680085 17.3204423,32.9521468 15.8453043,32.8887 C14.4811981,32.8252532 13.7436291,32.5952586 13.2439856,32.4049182 C12.5936559,32.151131 12.1257358,31.8497587 11.6340231,31.358046 C11.1423105,30.8663333 10.8409382,30.3984132 10.587151,29.7480836 C10.3968106,29.2563709 10.166816,28.510871 10.1033692,27.1467649 C10.0399224,25.6716269 10.0240607,25.2274993 10.0240607,21.4920692 C10.0240607,17.756639 10.0399224,17.3125114 10.1033692,15.8373734 C10.166816,14.4732673 10.3968106,13.7356983 10.587151,13.2360547 C10.8409382,12.5857251 11.1423105,12.117805 11.6340231,11.6260923 C12.1257358,11.1343796 12.5936559,10.8330073 13.2439856,10.5792201 C13.7356983,10.3888797 14.4811981,10.1588851 15.8453043,10.0954383 C17.1380327,10.0319915 17.6376763,10.0161298 20.2469258,10.0161298 Z M28.9708603,12.3398687 C28.0429509,12.3398687 27.2895202,13.0932994 27.2895202,14.0212088 C27.2895202,14.9491183 28.0429509,15.702549 28.9708603,15.702549 C29.8987697,15.702549 30.6522004,14.9491183 30.6522004,14.0212088 C30.6522004,13.0932994 29.8987697,12.3398687 28.9708603,12.3398687 Z M21.5,14.3067194 C17.5266444,14.3067194 14.3146503,17.5266444 14.3146503,21.4920692 C14.3146503,25.4654248 17.5345752,28.6774189 21.5,28.6774189 C25.4733556,28.6774189 28.6853497,25.4574939 28.6853497,21.4920692 C28.6853497,17.5187135 25.4733556,14.3067194 21.5,14.3067194 Z M21.5,16.8287296 C24.0775261,16.8287296 26.1633396,18.914543 26.1633396,21.4920692 C26.1633396,24.0695953 24.0775261,26.1554087 21.5,26.1554087 C18.9224739,26.1554087 16.8366604,24.0695953 16.8366604,21.4920692 C16.8366604,18.914543 18.9224739,16.8287296 21.5,16.8287296 Z" id="Oval" fill="#555555" fill-rule="nonzero"></path>
    </g>
</svg>